<svg width="57" height="11" viewBox="0 0 57 11" fill="none" xmlns="http://www.w3.org/2000/svg">
<path d="M10.425 2.715C10.925 3.535 11.175 4.43 11.175 5.4C11.175 6.36 10.925 7.255 10.425 8.085C9.925 8.905 9.245 9.555 8.385 10.035C7.535 10.505 6.605 10.74 5.595 10.74C4.585 10.74 3.65 10.505 2.79 10.035C1.93 9.555 1.25 8.905 0.749998 8.085C0.249998 7.255 -2.38419e-06 6.36 -2.38419e-06 5.4C-2.38419e-06 4.43 0.249998 3.535 0.749998 2.715C1.25 1.895 1.93 1.245 2.79 0.765001C3.65 0.285001 4.585 0.0450008 5.595 0.0450008C6.605 0.0450008 7.535 0.285001 8.385 0.765001C9.245 1.245 9.925 1.895 10.425 2.715ZM8.565 2.565C7.745 1.775 6.75 1.38 5.58 1.38C4.42 1.38 3.43 1.775 2.61 2.565C1.79 3.345 1.38 4.29 1.38 5.4C1.38 6.5 1.79 7.445 2.61 8.235C3.43 9.015 4.42 9.405 5.58 9.405C6.75 9.405 7.745 9.015 8.565 8.235C9.385 7.445 9.795 6.5 9.795 5.4C9.795 4.29 9.385 3.345 8.565 2.565ZM21.0622 6C22.0422 7.16 22.8472 8.12 23.4772 8.88C24.1172 9.64 24.6422 10.26 25.0522 10.74H23.7172C23.5472 10.74 23.3872 10.705 23.2372 10.635L23.2072 10.665C23.1872 10.645 23.1672 10.625 23.1472 10.605C23.0872 10.535 22.9672 10.395 22.7872 10.185C21.7672 8.985 20.2022 7.145 18.0922 4.665C19.2322 4.665 20.1522 4.665 20.8522 4.665C21.0122 4.655 21.0972 4.655 21.1072 4.665C21.5972 4.655 22.0122 4.495 22.3522 4.185C22.6922 3.865 22.8672 3.475 22.8772 3.015C22.8672 2.555 22.6922 2.17 22.3522 1.86C22.0122 1.54 21.5972 1.38 21.1072 1.38C21.0972 1.38 21.0272 1.38 20.8972 1.38C19.6772 1.38 17.5722 1.38 14.5822 1.38C14.3022 1.38 14.0672 1.29 13.8772 1.11C13.6872 0.920001 13.5922 0.690001 13.5922 0.420001V0.030001C18.5422 0.030001 21.0222 0.030001 21.0322 0.030001C21.9122 0.0100012 22.6672 0.295001 23.2972 0.885002C23.9372 1.465 24.2622 2.175 24.2722 3.015C24.2622 3.845 23.9472 4.555 23.3272 5.145C22.7072 5.735 21.9522 6.02 21.0622 6ZM36.4987 10.665L36.2437 10.74L36.2287 9.915C36.2287 9.555 36.3937 9.3 36.7237 9.15C37.4337 8.8 37.9937 8.305 38.4037 7.665C38.8237 7.025 39.0337 6.325 39.0337 5.565V0.405002C39.0337 0.305001 39.0687 0.220001 39.1387 0.150001C39.2187 0.0800009 39.3087 0.0450008 39.4087 0.0450008H40.4137V5.49C40.4237 6.68 40.0687 7.755 39.3487 8.715C38.6287 9.665 37.6787 10.315 36.4987 10.665ZM29.2387 5.565C29.2387 5.485 29.2387 5.435 29.2387 5.415C29.2387 5.235 29.2387 3.445 29.2387 0.0450008H30.2437C30.3537 0.0450008 30.4437 0.0800009 30.5137 0.150001C30.5837 0.220001 30.6187 0.305001 30.6187 0.405002V5.565C30.6187 6.325 30.8237 7.025 31.2337 7.665C31.6537 8.305 32.2187 8.8 32.9287 9.15C33.2587 9.3 33.4237 9.555 33.4237 9.915L33.4087 10.74L33.1537 10.665C31.9937 10.315 31.0487 9.67 30.3187 8.73C29.5987 7.79 29.2387 6.735 29.2387 5.565ZM56.2567 7.74C56.2567 8.53 55.9767 9.21 55.4167 9.78C54.8567 10.35 54.1617 10.67 53.3317 10.74C53.3317 10.74 50.8317 10.74 45.8317 10.74V10.095C45.8317 9.905 45.9017 9.745 46.0417 9.615C46.1817 9.475 46.3517 9.405 46.5517 9.405H53.2117C53.6717 9.385 54.0617 9.215 54.3817 8.895C54.7117 8.565 54.8767 8.18 54.8767 7.74C54.8767 7.31 54.7117 6.93 54.3817 6.6C54.0617 6.26 53.6267 6.085 53.0767 6.075C52.8867 6.065 52.7217 5.995 52.5817 5.865C52.4417 5.725 52.3717 5.56 52.3717 5.37V4.725H53.1217C53.9817 4.735 54.7167 5.035 55.3267 5.625C55.9467 6.205 56.2567 6.91 56.2567 7.74ZM48.8167 1.38C48.3367 1.38 47.9217 1.545 47.5717 1.875C47.2317 2.195 47.0617 2.585 47.0617 3.045C47.0617 3.505 47.2317 3.9 47.5717 4.23C47.9217 4.55 48.3367 4.71 48.8167 4.71C49.0267 4.71 49.2017 4.78 49.3417 4.92C49.4817 5.06 49.5517 5.225 49.5517 5.415V6.06H48.8167C47.9567 6.06 47.2167 5.765 46.5967 5.175C45.9867 4.585 45.6817 3.875 45.6817 3.045C45.6817 2.205 45.9967 1.49 46.6267 0.900001C47.2567 0.300001 48.0217 0.0150012 48.9217 0.0450008H55.8067V0.675002C55.8067 0.875001 55.7367 1.045 55.5967 1.185C55.4567 1.315 55.2867 1.38 55.0867 1.38C51.0867 1.38 48.9967 1.38 48.8167 1.38Z" fill="#C084FC"/>
</svg>
