<svg width="100" height="100" viewBox="0 0 100 100" fill="none" xmlns="http://www.w3.org/2000/svg">
<rect width="100" height="100" fill="black"/>
<path d="M30.99 46.975C31.49 47.795 31.74 48.69 31.74 49.66C31.74 50.62 31.49 51.515 30.99 52.345C30.49 53.165 29.81 53.815 28.95 54.295C28.1 54.765 27.17 55 26.16 55C25.15 55 24.215 54.765 23.355 54.295C22.495 53.815 21.815 53.165 21.315 52.345C20.815 51.515 20.565 50.62 20.565 49.66C20.565 48.69 20.815 47.795 21.315 46.975C21.815 46.155 22.495 45.505 23.355 45.025C24.215 44.545 25.15 44.305 26.16 44.305C27.17 44.305 28.1 44.545 28.95 45.025C29.81 45.505 30.49 46.155 30.99 46.975ZM29.13 46.825C28.31 46.035 27.315 45.64 26.145 45.64C24.985 45.64 23.995 46.035 23.175 46.825C22.355 47.605 21.945 48.55 21.945 49.66C21.945 50.76 22.355 51.705 23.175 52.495C23.995 53.275 24.985 53.665 26.145 53.665C27.315 53.665 28.31 53.275 29.13 52.495C29.95 51.705 30.36 50.76 30.36 49.66C30.36 48.55 29.95 47.605 29.13 46.825ZM41.6272 50.26C42.6072 51.42 43.4122 52.38 44.0422 53.14C44.6822 53.9 45.2072 54.52 45.6172 55H44.2822C44.1122 55 43.9522 54.965 43.8022 54.895L43.7722 54.925C43.7522 54.905 43.7322 54.885 43.7122 54.865C43.6522 54.795 43.5322 54.655 43.3522 54.445C42.3322 53.245 40.7672 51.405 38.6572 48.925C39.7972 48.925 40.7172 48.925 41.4172 48.925C41.5772 48.915 41.6622 48.915 41.6722 48.925C42.1622 48.915 42.5772 48.755 42.9172 48.445C43.2572 48.125 43.4322 47.735 43.4422 47.275C43.4322 46.815 43.2572 46.43 42.9172 46.12C42.5772 45.8 42.1622 45.64 41.6722 45.64C41.6622 45.64 41.5922 45.64 41.4622 45.64C40.2422 45.64 38.1372 45.64 35.1472 45.64C34.8672 45.64 34.6322 45.55 34.4422 45.37C34.2522 45.18 34.1572 44.95 34.1572 44.68V44.29C39.1072 44.29 41.5872 44.29 41.5972 44.29C42.4772 44.27 43.2322 44.555 43.8622 45.145C44.5022 45.725 44.8272 46.435 44.8372 47.275C44.8272 48.105 44.5122 48.815 43.8922 49.405C43.2722 49.995 42.5172 50.28 41.6272 50.26ZM57.0638 54.925L56.8088 55L56.7938 54.175C56.7938 53.815 56.9588 53.56 57.2888 53.41C57.9988 53.06 58.5588 52.565 58.9688 51.925C59.3888 51.285 59.5988 50.585 59.5988 49.825V44.665C59.5988 44.565 59.6338 44.48 59.7038 44.41C59.7838 44.34 59.8738 44.305 59.9738 44.305H60.9788V49.75C60.9888 50.94 60.6338 52.015 59.9138 52.975C59.1938 53.925 58.2438 54.575 57.0638 54.925ZM49.8038 49.825C49.8038 49.745 49.8038 49.695 49.8038 49.675C49.8038 49.495 49.8038 47.705 49.8038 44.305H50.8088C50.9188 44.305 51.0088 44.34 51.0788 44.41C51.1488 44.48 51.1838 44.565 51.1838 44.665V49.825C51.1838 50.585 51.3888 51.285 51.7988 51.925C52.2188 52.565 52.7838 53.06 53.4938 53.41C53.8238 53.56 53.9888 53.815 53.9888 54.175L53.9738 55L53.7188 54.925C52.5588 54.575 51.6138 53.93 50.8838 52.99C50.1638 52.05 49.8038 50.995 49.8038 49.825ZM76.8217 52C76.8217 52.79 76.5417 53.47 75.9817 54.04C75.4217 54.61 74.7267 54.93 73.8967 55C73.8967 55 71.3967 55 66.3967 55V54.355C66.3967 54.165 66.4667 54.005 66.6067 53.875C66.7467 53.735 66.9167 53.665 67.1167 53.665H73.7767C74.2367 53.645 74.6267 53.475 74.9467 53.155C75.2767 52.825 75.4417 52.44 75.4417 52C75.4417 51.57 75.2767 51.19 74.9467 50.86C74.6267 50.52 74.1917 50.345 73.6417 50.335C73.4517 50.325 73.2867 50.255 73.1467 50.125C73.0067 49.985 72.9367 49.82 72.9367 49.63V48.985H73.6867C74.5467 48.995 75.2817 49.295 75.8917 49.885C76.5117 50.465 76.8217 51.17 76.8217 52ZM69.3817 45.64C68.9017 45.64 68.4867 45.805 68.1367 46.135C67.7967 46.455 67.6267 46.845 67.6267 47.305C67.6267 47.765 67.7967 48.16 68.1367 48.49C68.4867 48.81 68.9017 48.97 69.3817 48.97C69.5917 48.97 69.7667 49.04 69.9067 49.18C70.0467 49.32 70.1167 49.485 70.1167 49.675V50.32H69.3817C68.5217 50.32 67.7817 50.025 67.1617 49.435C66.5517 48.845 66.2467 48.135 66.2467 47.305C66.2467 46.465 66.5617 45.75 67.1917 45.16C67.8217 44.56 68.5867 44.275 69.4867 44.305H76.3717V44.935C76.3717 45.135 76.3017 45.305 76.1617 45.445C76.0217 45.575 75.8517 45.64 75.6517 45.64C71.6517 45.64 69.5617 45.64 69.3817 45.64Z" fill="white"/>
</svg>
